<?xml version="1.0" encoding="UTF-8"?>
<svg width="280" height="80" viewBox="0 0 280 80" xmlns="http://www.w3.org/2000/svg">
  <defs>
    <style>
      @import url('https://fonts.googleapis.com/css2?family=Inter:wght@400;600');
      text { font-family: 'Inter', Arial, sans-serif; }
    </style>
  </defs>
  <!-- Icon -->
  <rect x="0" y="8" width="64" height="64" rx="16" fill="#6366f1"/>
  <rect x="8" y="22" width="38" height="30" rx="5" fill="white" opacity="0.15"/>
  <rect x="8" y="22" width="38" height="30" rx="5" fill="none" stroke="white" stroke-width="1.5" opacity="0.5"/>
  <rect x="8" y="22" width="38" height="8" rx="5" fill="white" opacity="0.2"/>
  <circle cx="14" cy="26" r="2" fill="white" opacity="0.7"/>
  <circle cx="20" cy="26" r="2" fill="white" opacity="0.5"/>
  <circle cx="26" cy="26" r="2" fill="white" opacity="0.3"/>
  <rect x="13" y="36" width="22" height="2.5" rx="1.2" fill="white" opacity="0.7"/>
  <rect x="13" y="41" width="16" height="2.5" rx="1.2" fill="white" opacity="0.5"/>
  <circle cx="46" cy="54" r="13" fill="#4f46e5"/>
  <path d="M48 42 L42 54 L47 54 L44 66 L52 52 L47 52 Z" fill="white"/>
  <!-- Text sát icon hơn -->
  <text x="74" y="46" font-size="30" font-weight="600" fill="#111827" letter-spacing="-0.8">Tao<tspan fill="#6366f1">Page</tspan></text>
  <text x="75" y="62" font-size="10" font-weight="400" fill="#9ca3af" letter-spacing="1.2">T&#7841;o trang &#183; content cho ng&#432;&#7901;i Vi&#7879;t</text>
</svg>
